<svg width="115" height="31" viewBox="0 0 115 31" fill="none" xmlns="http://www.w3.org/2000/svg">
<path d="M14.2764 9.64C12.2231 9.64 10.6497 10.2667 9.5564 11.52C8.46307 12.7733 7.9164 14.5467 7.9164 16.84C7.9164 19.16 8.5164 20.9467 9.7164 22.2C10.9431 23.4533 12.5831 24.08 14.6364 24.08C15.7297 24.08 16.6497 23.9333 17.3964 23.64C18.1697 23.3467 18.9031 23.0133 19.5964 22.64C20.0497 23.0133 20.3964 23.4667 20.6364 24C20.9031 24.5067 21.0364 25.1067 21.0364 25.8C21.0364 26.8933 20.4231 27.8267 19.1964 28.6C17.9964 29.3467 16.1564 29.72 13.6764 29.72C11.8897 29.72 10.2097 29.4667 8.6364 28.96C7.06307 28.4533 5.68973 27.68 4.5164 26.64C3.34307 25.5733 2.40973 24.24 1.7164 22.64C1.04973 21.0133 0.7164 19.08 0.7164 16.84C0.7164 14.76 1.0364 12.9333 1.6764 11.36C2.34307 9.76 3.2364 8.41333 4.3564 7.32C5.50307 6.22667 6.8364 5.4 8.3564 4.84C9.8764 4.28 11.5031 4 13.2364 4C15.6897 4 17.5831 4.4 18.9164 5.2C20.2764 6 20.9564 7.02667 20.9564 8.28C20.9564 8.97333 20.7831 9.57333 20.4364 10.08C20.0897 10.5867 19.6897 10.9867 19.2364 11.28C18.5431 10.8267 17.7964 10.44 16.9964 10.12C16.2231 9.8 15.3164 9.64 14.2764 9.64Z" fill="white"/>
<path d="M31.168 28.96C30.8746 29.0133 30.4346 29.08 29.848 29.16C29.288 29.2667 28.7146 29.32 28.128 29.32C27.5413 29.32 27.008 29.28 26.528 29.2C26.0746 29.12 25.688 28.96 25.368 28.72C25.048 28.48 24.7946 28.16 24.608 27.76C24.448 27.3333 24.368 26.7867 24.368 26.12V2.92C24.6613 2.86666 25.088 2.8 25.648 2.72C26.2346 2.61333 26.8213 2.56 27.408 2.56C27.9946 2.56 28.5146 2.6 28.968 2.68C29.448 2.76 29.848 2.92 30.168 3.16C30.488 3.4 30.728 3.73333 30.888 4.16C31.0746 4.56 31.168 5.09333 31.168 5.76V28.96Z" fill="white"/>
<path d="M75.8823 23.2C75.8823 25.2267 75.1223 26.8133 73.6023 27.96C72.0823 29.1067 69.8423 29.68 66.8823 29.68C65.7623 29.68 64.7223 29.6 63.7623 29.44C62.8023 29.28 61.9757 29.04 61.2823 28.72C60.6157 28.3733 60.0823 27.9467 59.6823 27.44C59.309 26.9333 59.1223 26.3333 59.1223 25.64C59.1223 25 59.2557 24.4667 59.5223 24.04C59.789 23.5867 60.109 23.2133 60.4823 22.92C61.2557 23.3467 62.1357 23.7333 63.1223 24.08C64.1357 24.4 65.2957 24.56 66.6023 24.56C67.429 24.56 68.0557 24.44 68.4823 24.2C68.9357 23.96 69.1623 23.64 69.1623 23.24C69.1623 22.8667 69.0023 22.5733 68.6823 22.36C68.3623 22.1467 67.829 21.9733 67.0823 21.84L65.8823 21.6C63.5623 21.1467 61.829 20.44 60.6823 19.48C59.5623 18.4933 59.0023 17.0933 59.0023 15.28C59.0023 14.2933 59.2157 13.4 59.6423 12.6C60.069 11.8 60.669 11.1333 61.4423 10.6C62.2157 10.0667 63.1357 9.65333 64.2023 9.36C65.2957 9.06666 66.4957 8.92 67.8023 8.92C68.789 8.92 69.709 9 70.5623 9.16C71.4423 9.29333 72.2023 9.50666 72.8423 9.8C73.4823 10.0933 73.989 10.48 74.3623 10.96C74.7357 11.4133 74.9223 11.96 74.9223 12.6C74.9223 13.2133 74.8023 13.7467 74.5623 14.2C74.349 14.6267 74.069 14.9867 73.7223 15.28C73.509 15.1467 73.189 15.0133 72.7623 14.88C72.3357 14.72 71.869 14.5867 71.3623 14.48C70.8557 14.3467 70.3357 14.24 69.8023 14.16C69.2957 14.08 68.829 14.04 68.4023 14.04C67.5223 14.04 66.8423 14.1467 66.3623 14.36C65.8823 14.5467 65.6423 14.8533 65.6423 15.28C65.6423 15.5733 65.7757 15.8133 66.0423 16C66.309 16.1867 66.8157 16.36 67.5623 16.52L68.8023 16.8C71.3623 17.3867 73.1757 18.2 74.2423 19.24C75.3357 20.2533 75.8823 21.5733 75.8823 23.2Z" fill="white"/>
<path d="M89.6451 29.64C88.0718 29.64 86.6051 29.4267 85.2451 29C83.9118 28.5467 82.7385 27.88 81.7252 27C80.7385 26.12 79.9518 25.0133 79.3652 23.68C78.8052 22.3467 78.5251 20.7867 78.5251 19C78.5251 17.24 78.8052 15.7333 79.3652 14.48C79.9518 13.2 80.7118 12.16 81.6451 11.36C82.5785 10.5333 83.6452 9.93333 84.8452 9.56C86.0452 9.16 87.2718 8.96 88.5252 8.96C89.9385 8.96 91.2185 9.17333 92.3652 9.6C93.5385 10.0267 94.5385 10.6133 95.3652 11.36C96.2185 12.1067 96.8718 13 97.3251 14.04C97.8052 15.08 98.0452 16.2133 98.0452 17.44C98.0452 18.3467 97.7918 19.04 97.2851 19.52C96.7785 20 96.0718 20.3067 95.1652 20.44L85.2851 21.92C85.5785 22.8 86.1785 23.4667 87.0852 23.92C87.9918 24.3467 89.0318 24.56 90.2052 24.56C91.2985 24.56 92.3251 24.4267 93.2851 24.16C94.2718 23.8667 95.0718 23.5333 95.6852 23.16C96.1118 23.4267 96.4718 23.8 96.7652 24.28C97.0585 24.76 97.2052 25.2667 97.2052 25.8C97.2052 27 96.6452 27.8933 95.5252 28.48C94.6718 28.9333 93.7118 29.24 92.6451 29.4C91.5785 29.56 90.5785 29.64 89.6451 29.64ZM88.5252 13.92C87.8852 13.92 87.3252 14.0267 86.8452 14.24C86.3918 14.4533 86.0185 14.7333 85.7252 15.08C85.4318 15.4 85.2052 15.7733 85.0452 16.2C84.9118 16.6 84.8318 17.0133 84.8052 17.44L91.6451 16.32C91.5651 15.7867 91.2718 15.2533 90.7652 14.72C90.2585 14.1867 89.5118 13.92 88.5252 13.92Z" fill="white"/>
<path d="M108.118 28.96C107.852 29.04 107.425 29.12 106.838 29.2C106.278 29.28 105.692 29.32 105.078 29.32C104.492 29.32 103.958 29.28 103.478 29.2C103.025 29.12 102.638 28.96 102.318 28.72C101.998 28.48 101.745 28.16 101.558 27.76C101.398 27.3333 101.318 26.7867 101.318 26.12V14.12C101.318 13.5067 101.425 12.9867 101.638 12.56C101.878 12.1067 102.212 11.7067 102.638 11.36C103.065 11.0133 103.585 10.7067 104.198 10.44C104.838 10.1467 105.518 9.89333 106.238 9.68C106.958 9.46666 107.705 9.30666 108.478 9.2C109.252 9.06667 110.025 9 110.798 9C112.078 9 113.092 9.25333 113.838 9.76C114.585 10.24 114.958 11.04 114.958 12.16C114.958 12.5333 114.905 12.9067 114.798 13.28C114.692 13.6267 114.558 13.9467 114.398 14.24C113.838 14.24 113.265 14.2667 112.678 14.32C112.092 14.3733 111.518 14.4533 110.958 14.56C110.398 14.6667 109.865 14.7867 109.358 14.92C108.878 15.0267 108.465 15.16 108.118 15.32V28.96Z" fill="white"/>
<path d="M45.2345 0.121046C45.1205 0.18157 44.9346 0.320773 44.8327 0.435767L44.6348 0.635494L44.4429 1.30125L44.5328 1.63413C44.5868 1.8157 44.7307 2.2091 44.8507 2.51171C45.1325 3.20773 45.3304 3.98243 45.4264 4.78739L45.4983 5.41683L45.4623 6.11285L45.4204 6.80886L45.3004 7.32331C44.9826 8.65482 44.341 9.82292 43.3215 10.9184C43.1056 11.1484 42.6199 11.5841 42.2421 11.8928C41.8643 12.2015 41.5045 12.5041 41.4505 12.5707C41.2766 12.7643 41.1627 13.1154 41.1627 13.4483V13.769L41.2766 14.0111C41.4985 14.4953 41.9543 14.7737 42.518 14.7737H42.8298L43.0337 14.6769C43.5794 14.3924 44.7967 13.3514 45.4983 12.5586C46.104 11.8747 46.7516 10.9244 47.1114 10.2103C47.4293 9.56267 47.7171 8.80008 47.873 8.17064C48.0229 7.54119 48.1788 6.45783 48.1788 5.96759L48.1848 5.5984L48.3707 5.81023C48.9224 6.45178 49.8039 7.53514 50.1518 8.01328C52.4605 11.1726 53.7978 14.1745 54.2055 17.1281L54.3015 17.8241V19.2464L54.3075 20.6687L54.2355 21.2134C54.0376 22.7991 53.6238 23.9914 52.9102 25.0748C52.5924 25.5469 51.8008 26.3458 51.3271 26.6726C50.4156 27.296 49.1923 27.7862 47.957 28.0162C46.9435 28.2099 46.3259 28.2643 44.9886 28.2643H43.7473L42.8298 28.1433C41.7444 28.0041 40.8868 27.7983 40.1553 27.5139C39.0459 27.0841 38.3502 26.6423 37.6246 25.9039C37.3428 25.6195 37.007 25.2321 36.887 25.0385C36.3473 24.2153 35.9696 23.2409 35.7956 22.2241L35.6997 21.6976V19.8819L35.8196 19.1859C36.0475 17.8725 36.5752 16.3413 37.3308 14.8221C38.2243 13.0185 39.0519 11.8081 40.557 10.0953L40.9168 9.68977L40.9768 9.45978C41.1207 8.94533 41.0008 8.44299 40.647 8.0859C40.2932 7.72882 39.8014 7.60777 39.2737 7.75303L39.0339 7.81355L38.4642 8.40062C38.1524 8.7214 37.6906 9.24795 37.4387 9.56267C36.8811 10.2647 36.0895 11.4328 35.6157 12.2499C35.106 13.1275 34.3205 14.804 33.9726 15.7542C33.6488 16.6378 33.313 17.8483 33.1571 18.7017C32.9592 19.7911 32.9472 21.4676 33.1271 22.5873C33.355 24.0217 33.8527 25.335 34.5963 26.4789C35.0401 27.1568 35.4958 27.6954 36.0655 28.2038C37.6246 29.5838 39.5316 30.4069 42.1402 30.8184L42.9317 30.9395L46.2299 31L47.0695 30.9032C49.8999 30.5703 51.9268 29.7774 53.6179 28.3309C54.1576 27.8709 54.8052 27.1205 55.243 26.4547C55.8186 25.565 56.4003 24.1851 56.6402 23.138C56.916 21.8973 57 20.9895 57 19.2766L56.994 17.8241L56.904 17.0676C56.6522 14.9069 56.0225 12.8672 54.9131 10.6218C54.0076 8.79403 52.9642 7.17806 51.513 5.35631C50.4876 4.06111 48.9224 2.37251 47.6152 1.14994C47.0994 0.665756 46.5657 0.211831 46.4278 0.133151L46.1819 0H45.8161L45.4503 0.00605232L45.2345 0.121046Z" fill="white"/>
</svg>
